STARTFONT 2.1
FONT -Adobe-New Century Schoolbook-Medium-R-Normal--20-140-100-100-P-103-ISO8859-2
SIZE 14 100 100
FONTBOUNDINGBOX 26 23 -3 -4
COMMENT $XConsortium: ncenR14.bdf,v 1.7 95/01/26 17:57:11 gildea Exp $
COMMENT 
COMMENT +
COMMENT  Copyright 1984-1989, 1994 Adobe Systems Incorporated.
COMMENT  Copyright 1988, 1994 Digital Equipment Corporation.
COMMENT
COMMENT  Adobe is a trademark of Adobe Systems Incorporated which may be
COMMENT  registered in certain jurisdictions.
COMMENT  Permission to use these trademarks is hereby granted only in
COMMENT  association with the images described in this file.
COMMENT
COMMENT  Permission to use, copy, modify, distribute and sell this software
COMMENT  and its documentation for any purpose and without fee is hereby
COMMENT  granted, provided that the above copyright notices appear in all
COMMENT  copies and that both those copyright notices and this permission
COMMENT  notice appear in supporting documentation, and that the names of
COMMENT  Adobe Systems and Digital Equipment Corporation not be used in
COMMENT  advertising or publicity pertaining to distribution of the software
COMMENT  without specific, written prior permission.  Adobe Systems and
COMMENT  Digital Equipment Corporation make no representations about the
COMMENT  suitability of this software for any purpose.  It is provided "as
COMMENT  is" without express or implied warranty.
COMMENT -
COMMENT  
COMMENT  Translation to ISO8859-2 by Cub Soft;  Petr.Kolar@vslib.cz
COMMENT  
STARTPROPERTIES 28
FOUNDRY "Adobe"
FAMILY_NAME "New Century Schoolbook"
WEIGHT_NAME "Medium"
SLANT "R"
SETWIDTH_NAME "Normal"
ADD_STYLE_NAME ""
PIXEL_SIZE 20
POINT_SIZE 140
RESOLUTION_X 100
RESOLUTION_Y 100
SPACING "P"
AVERAGE_WIDTH 103
CHARSET_REGISTRY "ISO8859"
CHARSET_ENCODING "2"
CAP_HEIGHT 14
X_HEIGHT 9
FONT_ASCENT 16
FONT_DESCENT 4
FACE_NAME "New Century Schoolbook Roman"

STARTCHAR space
ENCODING 32
SWIDTH 278 0
DWIDTH 5 0
BBX 1 1 0 0
BITMAP
00
ENDCHAR
STARTCHAR exclam
ENCODING 33
SWIDTH 296 0
DWIDTH 5 0
BBX 2 14 1 0
BITMAP
c0
c0
c0
c0
c0
c0
c0
80
80
80
00
00
c0
c0
ENDCHAR
STARTCHAR quotedbl
ENCODING 34
SWIDTH 389 0
DWIDTH 7 0
BBX 4 5 1 9
BITMAP
90
90
90
90
90
ENDCHAR
STARTCHAR numbersign
ENCODING 35
SWIDTH 556 0
DWIDTH 11 0
BBX 10 13 0 0
BITMAP
0900
0900
0900
0900
7fc0
1200
1200
1200
ff80
2400
2400
2400
2400
ENDCHAR
STARTCHAR dollar
ENCODING 36
SWIDTH 556 0
DWIDTH 10 0
BBX 9 17 0 -2
BITMAP
0800
0800
3f00
6980
c980
c800
e800
7800
1e00
0f00
0b80
0980
c980
cb00
7e00
0800
0800
ENDCHAR
STARTCHAR percent
ENCODING 37
SWIDTH 833 0
DWIDTH 16 0
BBX 15 14 0 0
BITMAP
1c20
3220
63c0
6240
c480
c480
c91c
7132
0262
0262
04c4
04c4
08c8
0870
ENDCHAR
STARTCHAR ampersand
ENCODING 38
SWIDTH 815 0
DWIDTH 14 0
BBX 13 14 0 0
BITMAP
1e00
3300
2100
2300
3600
1c00
39f8
7c60
ee40
c780
c380
c1c8
e3f0
7c60
ENDCHAR
STARTCHAR apostrophe
ENCODING 39
SWIDTH 204 0
DWIDTH 4 0
BBX 3 5 0 9
BITMAP
60
60
20
40
80
ENDCHAR
STARTCHAR parenleft
ENCODING 40
SWIDTH 333 0
DWIDTH 7 0
BBX 6 17 0 -3
BITMAP
04
18
30
60
60
c0
c0
c0
c0
c0
c0
c0
60
60
30
18
04
ENDCHAR
STARTCHAR parenright
ENCODING 41
SWIDTH 333 0
DWIDTH 7 0
BBX 6 17 0 -3
BITMAP
80
60
30
18
18
0c
0c
0c
0c
0c
0c
0c
18
18
30
60
80
ENDCHAR
STARTCHAR asterisk
ENCODING 42
SWIDTH 500 0
DWIDTH 10 0
BBX 7 7 1 7
BITMAP
10
92
d6
38
d6
92
10
ENDCHAR
STARTCHAR plus
ENCODING 43
SWIDTH 606 0
DWIDTH 10 0
BBX 9 9 0 1
BITMAP
0800
0800
0800
0800
ff80
0800
0800
0800
0800
ENDCHAR
STARTCHAR comma
ENCODING 44
SWIDTH 278 0
DWIDTH 5 0
BBX 3 5 0 -3
BITMAP
60
60
20
40
80
ENDCHAR
STARTCHAR minus
ENCODING 45
SWIDTH 606 0
DWIDTH 10 0
BBX 9 1 0 5
BITMAP
ff80
ENDCHAR
STARTCHAR period
ENCODING 46
SWIDTH 278 0
DWIDTH 5 0
BBX 2 2 1 0
BITMAP
c0
c0
ENDCHAR
STARTCHAR slash
ENCODING 47
SWIDTH 278 0
DWIDTH 6 0
BBX 5 14 0 0
BITMAP
08
08
08
10
10
10
20
20
20
40
40
40
80
80
ENDCHAR
STARTCHAR zero
ENCODING 48
SWIDTH 556 0
DWIDTH 10 0
BBX 9 14 0 0
BITMAP
1c00
6300
6300
c180
c180
c180
c180
c180
c180
c180
c180
6300
6300
1c00
ENDCHAR
STARTCHAR one
ENCODING 49
SWIDTH 556 0
DWIDTH 10 0
BBX 8 14 1 0
BITMAP
18
f8
18
18
18
18
18
18
18
18
18
18
18
ff
ENDCHAR
STARTCHAR two
ENCODING 50
SWIDTH 556 0
DWIDTH 10 0
BBX 9 14 0 0
BITMAP
1e00
6300
c180
c180
0180
0180
0300
0600
0c00
1800
3080
6080
ff80
ff80
ENDCHAR
STARTCHAR three
ENCODING 51
SWIDTH 556 0
DWIDTH 10 0
BBX 9 14 0 0
BITMAP
3e00
6300
6180
0180
0180
0300
1e00
0300
0180
0180
0180
c180
c300
7e00
ENDCHAR
STARTCHAR four
ENCODING 52
SWIDTH 556 0
DWIDTH 10 0
BBX 10 14 0 0
BITMAP
0300
0700
0b00
0b00
1300
1300
2300
2300
4300
4300
ffc0
0300
0300
0f80
ENDCHAR
STARTCHAR five
ENCODING 53
SWIDTH 556 0
DWIDTH 10 0
BBX 9 14 0 0
BITMAP
7f80
7f00
4000
4000
4000
5e00
6300
4180
0180
0180
0180
c180
c300
7e00
ENDCHAR
STARTCHAR six
ENCODING 54
SWIDTH 556 0
DWIDTH 10 0
BBX 9 14 0 0
BITMAP
0f00
3180
6180
6000
c000
ce00
df00
e380
c180
c180
c180
c180
6300
3e00
ENDCHAR
STARTCHAR seven
ENCODING 55
SWIDTH 556 0
DWIDTH 10 0
BBX 9 14 0 0
BITMAP
ff80
ff80
8100
8300
0200
0600
0600
0c00
0c00
1800
1800
1800
1800
1800
ENDCHAR
STARTCHAR eight
ENCODING 56
SWIDTH 556 0
DWIDTH 10 0
BBX 9 14 0 0
BITMAP
3e00
6300
4100
4100
6100
7200
3e00
2f00
4380
c180
c180
c180
6300
3e00
ENDCHAR
STARTCHAR nine
ENCODING 57
SWIDTH 556 0
DWIDTH 10 0
BBX 9 14 0 0
BITMAP
3e00
6300
c180
c180
c180
c180
e380
7d80
3980
0180
0300
c300
c600
7800
ENDCHAR
STARTCHAR colon
ENCODING 58
SWIDTH 278 0
DWIDTH 5 0
BBX 2 9 1 0
BITMAP
c0
c0
00
00
00
00
00
c0
c0
ENDCHAR
STARTCHAR semicolon
ENCODING 59
SWIDTH 278 0
DWIDTH 5 0
BBX 3 12 0 -3
BITMAP
60
60
00
00
00
00
00
60
60
20
40
80
ENDCHAR
STARTCHAR less
ENCODING 60
SWIDTH 606 0
DWIDTH 10 0
BBX 9 9 0 1
BITMAP
0080
0380
0e00
3800
e000
3800
0e00
0380
0080
ENDCHAR
STARTCHAR equal
ENCODING 61
SWIDTH 606 0
DWIDTH 10 0
BBX 9 4 0 4
BITMAP
ff80
0000
0000
ff80
ENDCHAR
STARTCHAR greater
ENCODING 62
SWIDTH 606 0
DWIDTH 10 0
BBX 9 9 0 1
BITMAP
8000
e000
3800
0e00
0380
0e00
3800
e000
8000
ENDCHAR
STARTCHAR question
ENCODING 63
SWIDTH 444 0
DWIDTH 8 0
BBX 7 14 0 0
BITMAP
3c
ce
c6
06
06
04
08
08
10
10
00
00
30
30
ENDCHAR
STARTCHAR at
ENCODING 64
SWIDTH 737 0
DWIDTH 14 0
BBX 13 14 0 0
BITMAP
0780
1860
2010
46d0
4dc8
8cc8
98c8
9990
9990
9ba0
4cc0
4010
2060
1f80
ENDCHAR
STARTCHAR A
ENCODING 65
SWIDTH 722 0
DWIDTH 13 0
BBX 14 14 -1 0
BITMAP
0300
0300
0300
0580
0580
0580
08c0
08c0
1fe0
1060
1060
2030
2030
f8fc
ENDCHAR
STARTCHAR B
ENCODING 66
SWIDTH 722 0
DWIDTH 13 0
BBX 12 14 0 0
BITMAP
ff80
30c0
3060
3060
3060
30c0
3f80
3060
3030
3030
3030
3030
3060
ffc0
ENDCHAR
STARTCHAR C
ENCODING 67
SWIDTH 722 0
DWIDTH 13 0
BBX 12 14 0 0
BITMAP
0f90
3870
6030
6010
c010
c000
c000
c000
c000
c000
6010
6010
3860
0fc0
ENDCHAR
STARTCHAR D
ENCODING 68
SWIDTH 778 0
DWIDTH 15 0
BBX 14 14 0 0
BITMAP
ffc0
3070
3018
3018
300c
300c
300c
300c
300c
300c
3018
3018
3070
ffc0
ENDCHAR
STARTCHAR E
ENCODING 69
SWIDTH 722 0
DWIDTH 12 0
BBX 11 14 0 0
BITMAP
ffe0
3060
3020
3020
3120
3100
3f00
3100
3100
3020
3020
3020
3060
ffe0
ENDCHAR
STARTCHAR F
ENCODING 70
SWIDTH 667 0
DWIDTH 12 0
BBX 11 14 0 0
BITMAP
ffe0
3060
3020
3020
3120
3100
3f00
3100
3100
3000
3000
3000
3000
fc00
ENDCHAR
STARTCHAR G
ENCODING 71
SWIDTH 778 0
DWIDTH 15 0
BBX 14 14 0 0
BITMAP
0fc8
3878
6018
6008
c008
c000
c000
c000
c07c
c018
6018
6018
3878
0fc8
ENDCHAR
STARTCHAR H
ENCODING 72
SWIDTH 833 0
DWIDTH 16 0
BBX 15 14 0 0
BITMAP
fc7e
3018
3018
3018
3018
3018
3ff8
3018
3018
3018
3018
3018
3018
fc7e
ENDCHAR
STARTCHAR I
ENCODING 73
SWIDTH 407 0
DWIDTH 7 0
BBX 6 14 0 0
BITMAP
fc
30
30
30
30
30
30
30
30
30
30
30
30
fc
ENDCHAR
STARTCHAR J
ENCODING 74
SWIDTH 556 0
DWIDTH 10 0
BBX 9 14 0 0
BITMAP
1f80
0600
0600
0600
0600
0600
0600
0600
0600
0600
c600
c600
8400
7800
ENDCHAR
STARTCHAR K
ENCODING 75
SWIDTH 778 0
DWIDTH 15 0
BBX 15 14 0 0
BITMAP
fcf8
3060
3040
3080
3100
3200
3600
3f00
3380
31c0
30e0
3070
3038
fcfe
ENDCHAR
STARTCHAR L
ENCODING 76
SWIDTH 667 0
DWIDTH 12 0
BBX 11 14 0 0
BITMAP
fc00
3000
3000
3000
3000
3000
3000
3000
3000
3020
3020
3020
3060
ffe0
ENDCHAR
STARTCHAR M
ENCODING 77
SWIDTH 944 0
DWIDTH 18 0
BBX 17 14 0 0
BITMAP
f80f80
380e00
2c1600
2c1600
2c1600
262600
262600
262600
234600
234600
234600
218600
218600
f99f80
ENDCHAR
STARTCHAR N
ENCODING 78
SWIDTH 815 0
DWIDTH 15 0
BBX 14 14 0 0
BITMAP
f07c
3010
3810
3c10
2e10
2610
2310
2390
2190
20d0
20f0
2070
2030
f810
ENDCHAR
STARTCHAR O
ENCODING 79
SWIDTH 778 0
DWIDTH 15 0
BBX 14 14 0 0
BITMAP
0fc0
3870
6018
6018
c00c
c00c
c00c
c00c
c00c
c00c
6018
6018
3870
0fc0
ENDCHAR
STARTCHAR P
ENCODING 80
SWIDTH 667 0
DWIDTH 12 0
BBX 11 14 0 0
BITMAP
ff80
30c0
3060
3060
3060
3060
30c0
3f00
3000
3000
3000
3000
3000
fc00
ENDCHAR
STARTCHAR Q
ENCODING 81
SWIDTH 778 0
DWIDTH 15 0
BBX 15 18 0 -4
BITMAP
0fc0
3870
6018
6018
c00c
c00c
c00c
c00c
c00c
cf0c
7198
6098
38f0
0fe0
0060
0072
003e
001c
ENDCHAR
STARTCHAR R
ENCODING 82
SWIDTH 722 0
DWIDTH 14 0
BBX 14 14 0 0
BITMAP
ff80
30c0
3060
3060
3060
30c0
3f00
3180
30c0
30c0
30e0
3060
3074
f838
ENDCHAR
STARTCHAR S
ENCODING 83
SWIDTH 630 0
DWIDTH 11 0
BBX 10 14 0 0
BITMAP
3e80
6180
c080
c080
c000
f000
7e00
1f80
03c0
80c0
80c0
c0c0
e180
bf00
ENDCHAR
STARTCHAR T
ENCODING 84
SWIDTH 667 0
DWIDTH 13 0
BBX 12 14 0 0
BITMAP
fff0
c630
8610
8610
8610
0600
0600
0600
0600
0600
0600
0600
0600
1f80
ENDCHAR
STARTCHAR U
ENCODING 85
SWIDTH 815 0
DWIDTH 15 0
BBX 14 14 0 0
BITMAP
fc7c
3010
3010
3010
3010
3010
3010
3010
3010
3010
3010
3010
1820
0fc0
ENDCHAR
STARTCHAR V
ENCODING 86
SWIDTH 722 0
DWIDTH 13 0
BBX 14 14 -1 0
BITMAP
fc7c
3010
3010
1820
1820
1820
0c40
0c40
0c40
0680
0680
0680
0300
0300
ENDCHAR
STARTCHAR W
ENCODING 87
SWIDTH 981 0
DWIDTH 19 0
BBX 20 14 -1 0
BITMAP
fdf9f0
306040
306040
187080
187080
187080
0c9900
0c9900
0c9900
050900
070e00
070e00
030600
030600
ENDCHAR
STARTCHAR X
ENCODING 88
SWIDTH 704 0
DWIDTH 14 0
BBX 13 14 1 0
BITMAP
f8f0
3040
38c0
1880
0d80
0f00
0600
0700
0f80
0980
10c0
30e0
2060
f9f8
ENDCHAR
STARTCHAR Y
ENCODING 89
SWIDTH 704 0
DWIDTH 13 0
BBX 14 14 -1 0
BITMAP
fc7c
3010
1820
1820
0c40
0c40
0680
0780
0300
0300
0300
0300
0300
0fc0
ENDCHAR
STARTCHAR Z
ENCODING 90
SWIDTH 611 0
DWIDTH 11 0
BBX 10 14 0 0
BITMAP
ffc0
c0c0
8180
8380
8300
0600
0e00
1c00
1800
3040
7040
6040
c0c0
ffc0
ENDCHAR
STARTCHAR bracketleft
ENCODING 91
SWIDTH 333 0
DWIDTH 6 0
BBX 4 17 1 -3
BITMAP
f0
c0
c0
c0
c0
c0
c0
c0
c0
c0
c0
c0
c0
c0
c0
c0
f0
ENDCHAR
STARTCHAR backslash
ENCODING 92
SWIDTH 606 0
DWIDTH 10 0
BBX 7 14 1 0
BITMAP
80
80
c0
40
60
20
30
10
18
08
0c
04
06
02
ENDCHAR
STARTCHAR bracketright
ENCODING 93
SWIDTH 333 0
DWIDTH 6 0
BBX 4 17 0 -3
BITMAP
f0
30
30
30
30
30
30
30
30
30
30
30
30
30
30
30
f0
ENDCHAR
STARTCHAR asciicircum
ENCODING 94
SWIDTH 606 0
DWIDTH 10 0
BBX 9 9 0 5
BITMAP
0800
0800
1c00
1400
3600
2200
6300
4100
c180
ENDCHAR
STARTCHAR underscore
ENCODING 95
SWIDTH 500 0
DWIDTH 9 0
BBX 9 1 0 -2
BITMAP
ff80
ENDCHAR
STARTCHAR grave
ENCODING 96
SWIDTH 333 0
DWIDTH 6 0
BBX 4 3 1 10
BITMAP
c0
60
10
ENDCHAR
STARTCHAR a
ENCODING 97
SWIDTH 556 0
DWIDTH 10 0
BBX 9 9 0 0
BITMAP
1c00
6200
6300
0300
1f00
6300
c300
c700
7980
ENDCHAR
STARTCHAR b
ENCODING 98
SWIDTH 556 0
DWIDTH 10 0
BBX 10 14 -1 0
BITMAP
e000
6000
6000
6000
6000
6f00
7180
60c0
60c0
60c0
60c0
60c0
7180
4f00
ENDCHAR
STARTCHAR c
ENCODING 99
SWIDTH 444 0
DWIDTH 9 0
BBX 8 9 0 0
BITMAP
3c
63
c3
c0
c0
c0
c1
63
3e
ENDCHAR
STARTCHAR d
ENCODING 100
SWIDTH 574 0
DWIDTH 11 0
BBX 10 14 0 0
BITMAP
0380
0180
0180
0180
0180
3d80
6380
c180
c180
c180
c180
c180
6380
3dc0
ENDCHAR
STARTCHAR e
ENCODING 101
SWIDTH 500 0
DWIDTH 9 0
BBX 8 9 0 0
BITMAP
3c
66
c3
c3
ff
c0
c1
63
3e
ENDCHAR
STARTCHAR f
ENCODING 102
SWIDTH 333 0
DWIDTH 7 0
BBX 8 14 0 0
BITMAP
0e
1b
33
30
30
fc
30
30
30
30
30
30
30
78
ENDCHAR
STARTCHAR g
ENCODING 103
SWIDTH 537 0
DWIDTH 11 0
BBX 10 14 0 -4
BITMAP
00c0
1fc0
3300
6180
6180
3300
3e00
4000
7f00
3f80
41c0
80c0
c180
7f00
ENDCHAR
STARTCHAR h
ENCODING 104
SWIDTH 611 0
DWIDTH 11 0
BBX 10 14 0 0
BITMAP
e000
6000
6000
6000
6000
6f00
7380
6180
6180
6180
6180
6180
6180
f3c0
ENDCHAR
STARTCHAR i
ENCODING 105
SWIDTH 315 0
DWIDTH 5 0
BBX 4 13 0 0
BITMAP
60
60
00
00
e0
60
60
60
60
60
60
60
f0
ENDCHAR
STARTCHAR j
ENCODING 106
SWIDTH 296 0
DWIDTH 5 0
BBX 6 17 -3 -4
BITMAP
0c
0c
00
00
1c
0c
0c
0c
0c
0c
0c
0c
0c
0c
cc
c8
70
ENDCHAR
STARTCHAR k
ENCODING 107
SWIDTH 593 0
DWIDTH 10 0
BBX 10 14 0 0
BITMAP
e000
6000
6000
6000
6000
6780
6200
6400
6800
7800
6c00
6600
6300
f7c0
ENDCHAR
STARTCHAR l
ENCODING 108
SWIDTH 315 0
DWIDTH 5 0
BBX 4 14 0 0
BITMAP
e0
60
60
60
60
60
60
60
60
60
60
60
60
f0
ENDCHAR
STARTCHAR m
ENCODING 109
SWIDTH 889 0
DWIDTH 17 0
BBX 16 9 0 0
BITMAP
ef3c
73ce
6186
6186
6186
6186
6186
6186
f3cf
ENDCHAR
STARTCHAR n
ENCODING 110
SWIDTH 611 0
DWIDTH 11 0
BBX 10 9 0 0
BITMAP
ef00
7380
6180
6180
6180
6180
6180
6180
f3c0
ENDCHAR
STARTCHAR o
ENCODING 111
SWIDTH 500 0
DWIDTH 10 0
BBX 9 9 0 0
BITMAP
3e00
6300
c180
c180
c180
c180
c180
6300
3e00
ENDCHAR
STARTCHAR p
ENCODING 112
SWIDTH 574 0
DWIDTH 11 0
BBX 10 13 0 -4
BITMAP
ef00
7180
60c0
60c0
60c0
60c0
60c0
7180
6f00
6000
6000
6000
f000
ENDCHAR
STARTCHAR q
ENCODING 113
SWIDTH 556 0
DWIDTH 10 0
BBX 10 13 0 -4
BITMAP
3c80
6380
c180
c180
c180
c180
c180
6380
3d80
0180
0180
0180
03c0
ENDCHAR
STARTCHAR r
ENCODING 114
SWIDTH 444 0
DWIDTH 8 0
BBX 7 9 0 0
BITMAP
e6
6e
72
60
60
60
60
60
f0
ENDCHAR
STARTCHAR s
ENCODING 115
SWIDTH 463 0
DWIDTH 8 0
BBX 7 9 0 0
BITMAP
7a
c6
82
e0
7c
0e
82
c6
bc
ENDCHAR
STARTCHAR t
ENCODING 116
SWIDTH 389 0
DWIDTH 6 0
BBX 6 12 0 0
BITMAP
60
60
60
f8
60
60
60
60
60
60
64
38
ENDCHAR
STARTCHAR u
ENCODING 117
SWIDTH 611 0
DWIDTH 11 0
BBX 10 9 0 0
BITMAP
e380
6180
6180
6180
6180
6180
6180
7380
3dc0
ENDCHAR
STARTCHAR v
ENCODING 118
SWIDTH 537 0
DWIDTH 11 0
BBX 10 9 0 0
BITMAP
f1c0
6080
6080
3100
3100
1a00
1e00
0c00
0c00
ENDCHAR
STARTCHAR w
ENCODING 119
SWIDTH 778 0
DWIDTH 16 0
BBX 15 9 0 0
BITMAP
f7de
6184
6184
32c8
32c8
34d0
1c70
1c70
0820
ENDCHAR
STARTCHAR x
ENCODING 120
SWIDTH 537 0
DWIDTH 10 0
BBX 9 9 0 0
BITMAP
f380
6100
3200
1c00
0800
1c00
2600
4300
e780
ENDCHAR
STARTCHAR y
ENCODING 121
SWIDTH 537 0
DWIDTH 11 0
BBX 10 13 0 -4
BITMAP
f1c0
6080
3100
3100
1a00
1a00
0c00
0c00
0800
0800
1000
d000
e000
ENDCHAR
STARTCHAR z
ENCODING 122
SWIDTH 481 0
DWIDTH 8 0
BBX 7 9 0 0
BITMAP
fe
86
8c
18
18
30
62
c6
fe
ENDCHAR
STARTCHAR braceleft
ENCODING 123
SWIDTH 333 0
DWIDTH 6 0
BBX 5 17 0 -3
BITMAP
18
20
60
60
60
60
60
40
80
40
60
60
60
60
60
20
18
ENDCHAR
STARTCHAR bar
ENCODING 124
SWIDTH 606 0
DWIDTH 11 0
BBX 2 14 4 0
BITMAP
c0
c0
c0
c0
c0
c0
c0
c0
c0
c0
c0
c0
c0
c0
ENDCHAR
STARTCHAR braceright
ENCODING 125
SWIDTH 333 0
DWIDTH 6 0
BBX 5 17 0 -3
BITMAP
c0
20
30
30
30
30
30
10
08
10
30
30
30
30
30
20
c0
ENDCHAR
STARTCHAR asciitilde
ENCODING 126
SWIDTH 606 0
DWIDTH 11 0
BBX 10 3 0 4
BITMAP
38c0
6d80
c700
ENDCHAR
STARTCHAR nobreakspace
ENCODING 160
SWIDTH 278 0
DWIDTH 5 0
BBX 1 1 0 0
BITMAP
00
ENDCHAR
STARTCHAR Aogonek
ENCODING 161
SWIDTH 722 0
DWIDTH 13 0
BBX 14 18 -1 -4
BITMAP
0300
0300
0300
0580
0580
0580
08c0
08c0
1fe0
1060
1060
2030
2030
f8fc
0200
0400
0680
0300
ENDCHAR
STARTCHAR breve
ENCODING 162
SWIDTH 333 0
DWIDTH 6 0
BBX 5 2 0 10
BITMAP
88
70
ENDCHAR
STARTCHAR Lstroke
ENCODING 163
SWIDTH 667 0
DWIDTH 12 0
BBX 11 14 0 0
BITMAP
fc00
3000
3000
3000
3000
3400
3800
3000
7000
b020
3020
3020
3060
ffe0
ENDCHAR
STARTCHAR currency
ENCODING 164
SWIDTH 606 0
DWIDTH 12 0
BBX 9 9 1 3
BITMAP
9c80
ff80
6300
c180
c180
c180
6300
ff80
9c80
ENDCHAR
STARTCHAR Lcaron
ENCODING 165
SWIDTH 667 0
DWIDTH 12 0
BBX 11 15 0 0
BITMAP
00c0
fcc0
3040
3080
3100
3000
3000
3000
3000
3000
3020
3020
3020
3060
ffe0
ENDCHAR
STARTCHAR Sacute
ENCODING 166
SWIDTH 630 0
DWIDTH 11 0
BBX 10 18 0 0
BITMAP
0300
0600
0800
0000
3e80
6180
c080
c080
c000
f000
7e00
1f80
03c0
80c0
80c0
c0c0
e180
bf00
ENDCHAR
STARTCHAR section
ENCODING 167
SWIDTH 500 0
DWIDTH 9 0
BBX 8 17 0 -3
BITMAP
3c
66
46
40
60
78
3e
4f
c3
e3
7a
3c
0e
06
62
66
3c
ENDCHAR
STARTCHAR diaeresis
ENCODING 168
SWIDTH 333 0
DWIDTH 7 0
BBX 6 2 0 10
BITMAP
cc
cc
ENDCHAR
STARTCHAR Scaron
ENCODING 169
SWIDTH 630 0
DWIDTH 11 0
BBX 10 19 0 0
BITMAP
4100
2200
1c00
0800
0000
3e80
6180
c080
c080
c000
f000
7e00
1f80
03c0
80c0
80c0
c0c0
e180
bf00
ENDCHAR
STARTCHAR Scedilla
ENCODING 170
SWIDTH 630 0
DWIDTH 11 0
BBX 10 18 0 -4
BITMAP
3e80
6180
c080
c080
c000
f000
7e00
1f80
03c0
80c0
80c0
c0c0
e180
bf00
0800
0e00
0200
1c00
ENDCHAR
STARTCHAR Tcaron
ENCODING 171
SWIDTH 667 0
DWIDTH 13 0
BBX 12 19 0 0
BITMAP
2080
1100
0e00
0400
0000
fff0
c630
8610
8610
8610
0600
0600
0600
0600
0600
0600
0600
0600
1f80
ENDCHAR
STARTCHAR Zacute
ENCODING 172
SWIDTH 611 0
DWIDTH 11 0
BBX 10 18 0 0
BITMAP
0300
0600
0800
0000
ffc0
c0c0
8180
8380
8300
0600
0e00
1c00
1800
3040
7040
6040
c0c0
ffc0
ENDCHAR
STARTCHAR hyphen
ENCODING 173
SWIDTH 333 0
DWIDTH 6 0
BBX 5 1 0 5
BITMAP
f8
ENDCHAR
STARTCHAR Zcaron
ENCODING 174
SWIDTH 611 0
DWIDTH 11 0
BBX 10 19 0 0
BITMAP
4100
2200
1c00
0800
0000
ffc0
c0c0
8180
8380
8300
0600
0e00
1c00
1800
3040
7040
6040
c0c0
ffc0
ENDCHAR
STARTCHAR Zabovedot
ENCODING 175
SWIDTH 611 0
DWIDTH 11 0
BBX 10 17 0 0
BITMAP
0c00
0c00
0000
ffc0
c0c0
8180
8380
8300
0600
0e00
1c00
1800
3040
7040
6040
c0c0
ffc0
ENDCHAR
STARTCHAR degree
ENCODING 176
SWIDTH 400 0
DWIDTH 7 0
BBX 6 6 0 8
BITMAP
78
cc
84
84
cc
78
ENDCHAR
STARTCHAR aogonek
ENCODING 177
SWIDTH 556 0
DWIDTH 10 0
BBX 9 13 0 -4
BITMAP
1c00
6200
6300
0300
1f00
6300
c300
c700
7980
0800
1000
1a00
0c00
ENDCHAR
STARTCHAR ogonek
ENCODING 178
SWIDTH 333 0
DWIDTH 6 0
BBX 4 4 1 -3
BITMAP
40
80
d0
60
ENDCHAR
STARTCHAR lstroke
ENCODING 179
SWIDTH 315 0
DWIDTH 5 0
BBX 4 14 0 0
BITMAP
e0
60
60
60
60
70
60
e0
60
60
60
60
60
f0
ENDCHAR
STARTCHAR acute
ENCODING 180
SWIDTH 333 0
DWIDTH 6 0
BBX 4 3 1 11
BITMAP
30
60
80
ENDCHAR
STARTCHAR lcaron
ENCODING 181
SWIDTH 411 0
DWIDTH 8 0
BBX 7 15 0 0
BITMAP
06
e6
62
64
68
60
60
60
60
60
60
60
60
60
f0
ENDCHAR
STARTCHAR sacute
ENCODING 182
SWIDTH 463 0
DWIDTH 8 0
BBX 7 13 0 0
BITMAP
06
0c
10
00
7a
c6
82
e0
7c
0e
82
c6
bc
ENDCHAR
STARTCHAR caron
ENCODING 183
SWIDTH 333 0
DWIDTH 8 0
BBX 7 4 0 10
BITMAP
82
44
38
10
ENDCHAR
STARTCHAR cedilla
ENCODING 184
SWIDTH 333 0
DWIDTH 6 0
BBX 4 4 0 -4
BITMAP
40
70
10
e0
ENDCHAR
STARTCHAR scaron
ENCODING 185
SWIDTH 463 0
DWIDTH 8 0
BBX 7 14 0 0
BITMAP
82
44
38
10
00
7a
c6
82
e0
7c
0e
82
c6
bc
ENDCHAR
STARTCHAR scedilla
ENCODING 186
SWIDTH 463 0
DWIDTH 8 0
BBX 7 13 0 -4
BITMAP
7a
c6
82
e0
7c
0e
82
c6
bc
10
1c
04
38
ENDCHAR
STARTCHAR tcaron
ENCODING 187
SWIDTH 360 0
DWIDTH 7 0
BBX 7 15 0 0
BITMAP
06
06
02
64
68
60
f8
60
60
60
60
60
60
64
38
ENDCHAR
STARTCHAR zacute
ENCODING 188
SWIDTH 481 0
DWIDTH 8 0
BBX 7 13 0 0
BITMAP
06
0c
10
00
fe
86
8c
18
18
30
62
c6
fe
ENDCHAR
STARTCHAR doubleacute
ENCODING 189
SWIDTH 333 0
DWIDTH 10 0
BBX 9 4 0 10
BITMAP
1980
3300
4400
8800
ENDCHAR
STARTCHAR zcaron
ENCODING 190
SWIDTH 481 0
DWIDTH 8 0
BBX 7 14 0 0
BITMAP
82
44
38
10
00
fe
86
8c
18
18
30
62
c6
fe
ENDCHAR
STARTCHAR zabovedot
ENCODING 191
SWIDTH 481 0
DWIDTH 8 0
BBX 7 12 0 0
BITMAP
18
18
00
fe
86
8c
18
18
30
62
c6
fe
ENDCHAR
STARTCHAR Racute
ENCODING 192
SWIDTH 722 0
DWIDTH 14 0
BBX 14 18 0 0
BITMAP
0180
0300
0400
0000
ff80
30c0
3060
3060
3060
30c0
3f00
3180
30c0
30c0
30e0
3060
3074
f838
ENDCHAR
STARTCHAR Aacute
ENCODING 193
SWIDTH 722 0
DWIDTH 13 0
BBX 14 18 -1 0
BITMAP
00c0
0180
0200
0000
0300
0300
0300
0580
0580
0580
08c0
08c0
1fe0
1060
1060
2030
2030
f8fc
ENDCHAR
STARTCHAR Acircumflex
ENCODING 194
SWIDTH 722 0
DWIDTH 13 0
BBX 14 18 -1 0
BITMAP
0300
0780
0840
0000
0300
0300
0300
0580
0580
0580
08c0
08c0
1fe0
1060
1060
2030
2030
f8fc
ENDCHAR
STARTCHAR Abreve
ENCODING 195
SWIDTH 722 0
DWIDTH 13 0
BBX 14 17 -1 0
BITMAP
0880
0700
0000
0300
0300
0300
0580
0580
0580
08c0
08c0
1fe0
1060
1060
2030
2030
f8fc
ENDCHAR
STARTCHAR Adiaeresis
ENCODING 196
SWIDTH 722 0
DWIDTH 13 0
BBX 14 17 -1 0
BITMAP
0cc0
0cc0
0000
0300
0300
0300
0580
0580
0580
08c0
08c0
1fe0
1060
1060
2030
2030
f8fc
ENDCHAR
STARTCHAR Lacute
ENCODING 197
SWIDTH 667 0
DWIDTH 12 0
BBX 11 18 0 0
BITMAP
0c00
1800
2000
0000
fc00
3000
3000
3000
3000
3000
3000
3000
3000
3020
3020
3020
3060
ffe0
ENDCHAR
STARTCHAR Cacute
ENCODING 198
SWIDTH 722 0
DWIDTH 13 0
BBX 12 18 0 0
BITMAP
00c0
0180
0200
0000
0f90
3870
6030
6010
c010
c000
c000
c000
c000
c000
6010
6010
3860
0fc0
ENDCHAR
STARTCHAR Ccedilla
ENCODING 199
SWIDTH 722 0
DWIDTH 13 0
BBX 12 18 0 -4
BITMAP
0f90
3870
6030
6010
c010
c000
c000
c000
c000
c000
6010
6010
3860
0fc0
0400
0700
0100
0e00
ENDCHAR
STARTCHAR Ccaron
ENCODING 200
SWIDTH 722 0
DWIDTH 13 0
BBX 12 19 0 0
BITMAP
1040
0880
0700
0200
0000
0f90
3870
6030
6010
c010
c000
c000
c000
c000
c000
6010
6010
3860
0fc0
ENDCHAR
STARTCHAR Eacute
ENCODING 201
SWIDTH 722 0
DWIDTH 12 0
BBX 11 18 0 0
BITMAP
0300
0600
0800
0000
ffe0
3060
3020
3020
3120
3100
3f00
3100
3100
3020
3020
3020
3060
ffe0
ENDCHAR
STARTCHAR Eogonek
ENCODING 202
SWIDTH 722 0
DWIDTH 12 0
BBX 11 18 0 -4
BITMAP
ffe0
3060
3020
3020
3120
3100
3f00
3100
3100
3020
3020
3020
3060
ffe0
0400
0800
0d00
0600
ENDCHAR
STARTCHAR Ediaeresis
ENCODING 203
SWIDTH 722 0
DWIDTH 12 0
BBX 11 17 0 0
BITMAP
1980
1980
0000
ffe0
3060
3020
3020
3120
3100
3f00
3100
3100
3020
3020
3020
3060
ffe0
ENDCHAR
STARTCHAR Ecaron
ENCODING 204
SWIDTH 722 0
DWIDTH 12 0
BBX 11 19 0 0
BITMAP
2080
1100
0e00
0400
0000
ffe0
3060
3020
3020
3120
3100
3f00
3100
3100
3020
3020
3020
3060
ffe0
ENDCHAR
STARTCHAR Iacute
ENCODING 205
SWIDTH 407 0
DWIDTH 7 0
BBX 6 18 0 0
BITMAP
0c
18
20
00
fc
30
30
30
30
30
30
30
30
30
30
30
30
fc
ENDCHAR
STARTCHAR Icircumflex
ENCODING 206
SWIDTH 407 0
DWIDTH 7 0
BBX 6 18 0 0
BITMAP
30
78
84
00
fc
30
30
30
30
30
30
30
30
30
30
30
30
fc
ENDCHAR
STARTCHAR Dcaron
ENCODING 207
SWIDTH 778 0
DWIDTH 15 0
BBX 14 19 0 0
BITMAP
1040
0880
0700
0200
0000
ffc0
3070
3018
3018
300c
300c
300c
300c
300c
300c
3018
3018
3070
ffc0
ENDCHAR
STARTCHAR Dstroke
ENCODING 208
SWIDTH 778 0
DWIDTH 15 0
BBX 14 14 0 0
BITMAP
ffc0
3070
3018
3018
300c
300c
fe0c
300c
300c
300c
3018
3018
3070
ffc0
ENDCHAR
STARTCHAR Nacute
ENCODING 209
SWIDTH 815 0
DWIDTH 15 0
BBX 14 18 0 0
BITMAP
00c0
0180
0200
0000
f07c
3010
3810
3c10
2e10
2610
2310
2390
2190
20d0
20f0
2070
2030
f810
ENDCHAR
STARTCHAR Ncaron
ENCODING 210
SWIDTH 815 0
DWIDTH 15 0
BBX 14 19 0 0
BITMAP
1040
0880
0700
0200
0000
f07c
3010
3810
3c10
2e10
2610
2310
2390
2190
20d0
20f0
2070
2030
f810
ENDCHAR
STARTCHAR Oacute
ENCODING 211
SWIDTH 778 0
DWIDTH 15 0
BBX 14 18 0 0
BITMAP
00c0
0180
0200
0000
0fc0
3870
6018
6018
c00c
c00c
c00c
c00c
c00c
c00c
6018
6018
3870
0fc0
ENDCHAR
STARTCHAR Ocircumflex
ENCODING 212
SWIDTH 778 0
DWIDTH 15 0
BBX 14 18 0 0
BITMAP
0300
0780
0840
0000
0fc0
3870
6018
6018
c00c
c00c
c00c
c00c
c00c
c00c
6018
6018
3870
0fc0
ENDCHAR
STARTCHAR Odoubleacute
ENCODING 213
SWIDTH 778 0
DWIDTH 15 0
BBX 14 19 0 0
BITMAP
0198
0330
0440
0880
0000
0fc0
3870
6018
6018
c00c
c00c
c00c
c00c
c00c
c00c
6018
6018
3870
0fc0
ENDCHAR
STARTCHAR Odiaeresis
ENCODING 214
SWIDTH 778 0
DWIDTH 15 0
BBX 14 17 0 0
BITMAP
0cc0
0cc0
0000
0fc0
3870
6018
6018
c00c
c00c
c00c
c00c
c00c
c00c
6018
6018
3870
0fc0
ENDCHAR
STARTCHAR multiply
ENCODING 215
SWIDTH 606 0
DWIDTH 10 0
BBX 10 9 0 1
BITMAP
c0c0
6180
3300
1e00
0c00
1e00
3300
6180
c0c0
ENDCHAR
STARTCHAR Rcaron
ENCODING 216
SWIDTH 722 0
DWIDTH 14 0
BBX 14 19 0 0
BITMAP
2080
1100
0e00
0400
0000
ff80
30c0
3060
3060
3060
30c0
3f00
3180
30c0
30c0
30e0
3060
3074
f838
ENDCHAR
STARTCHAR Uring
ENCODING 217
SWIDTH 815 0
DWIDTH 15 0
BBX 14 19 0 0
BITMAP
0300
0480
0480
0300
0000
fc7c
3010
3010
3010
3010
3010
3010
3010
3010
3010
3010
3010
1820
0fc0
ENDCHAR
STARTCHAR Uacute
ENCODING 218
SWIDTH 815 0
DWIDTH 15 0
BBX 14 18 0 0
BITMAP
00c0
0180
0200
0000
fc7c
3010
3010
3010
3010
3010
3010
3010
3010
3010
3010
3010
1820
0fc0
ENDCHAR
STARTCHAR Udoubleacute
ENCODING 219
SWIDTH 815 0
DWIDTH 15 0
BBX 14 19 0 0
BITMAP
0198
0330
0440
0880
0000
fc7c
3010
3010
3010
3010
3010
3010
3010
3010
3010
3010
3010
1820
0fc0
ENDCHAR
STARTCHAR Udiaeresis
ENCODING 220
SWIDTH 815 0
DWIDTH 15 0
BBX 14 17 0 0
BITMAP
0c60
0c60
0000
fc7c
3010
3010
3010
3010
3010
3010
3010
3010
3010
3010
3010
1820
0fc0
ENDCHAR
STARTCHAR Yacute
ENCODING 221
SWIDTH 704 0
DWIDTH 13 0
BBX 14 18 -1 0
BITMAP
0060
00c0
0100
0000
fc7c
3010
1820
1820
0c40
0c40
0680
0780
0300
0300
0300
0300
0300
0fc0
ENDCHAR
STARTCHAR Tcedilla
ENCODING 222
SWIDTH 667 0
DWIDTH 13 0
BBX 12 18 0 -4
BITMAP
fff0
c630
8610
8610
8610
0600
0600
0600
0600
0600
0600
0600
0600
1f80
0400
0700
0100
0e00
ENDCHAR
STARTCHAR ssharp
ENCODING 223
SWIDTH 574 0
DWIDTH 10 0
BBX 9 14 0 0
BITMAP
1e00
2300
6100
6100
6300
6e00
6300
6180
6180
6180
6180
6d80
6d00
e600
ENDCHAR
STARTCHAR racute
ENCODING 224
SWIDTH 444 0
DWIDTH 8 0
BBX 7 13 0 0
BITMAP
06
0c
10
00
e6
6e
72
60
60
60
60
60
f0
ENDCHAR
STARTCHAR aacute
ENCODING 225
SWIDTH 556 0
DWIDTH 10 0
BBX 9 13 0 0
BITMAP
0600
0c00
1000
0000
1c00
6200
6300
0300
1f00
6300
c300
c700
7980
ENDCHAR
STARTCHAR acircumflex
ENCODING 226
SWIDTH 556 0
DWIDTH 10 0
BBX 9 13 0 0
BITMAP
1800
3c00
4200
0000
1c00
6200
6300
0300
1f00
6300
c300
c700
7980
ENDCHAR
STARTCHAR abreve
ENCODING 227
SWIDTH 556 0
DWIDTH 10 0
BBX 9 12 0 0
BITMAP
4400
3800
0000
1c00
6200
6300
0300
1f00
6300
c300
c700
7980
ENDCHAR
STARTCHAR adiaeresis
ENCODING 228
SWIDTH 556 0
DWIDTH 10 0
BBX 9 12 0 0
BITMAP
6600
6600
0000
1c00
6200
6300
0300
1f00
6300
c300
c700
7980
ENDCHAR
STARTCHAR lacute
ENCODING 229
SWIDTH 315 0
DWIDTH 5 0
BBX 5 18 0 0
BITMAP
18
30
40
00
e0
60
60
60
60
60
60
60
60
60
60
60
60
f0
ENDCHAR
STARTCHAR cacute
ENCODING 230
SWIDTH 444 0
DWIDTH 9 0
BBX 8 13 0 0
BITMAP
03
06
08
00
3c
63
c3
c0
c0
c0
c1
63
3e
ENDCHAR
STARTCHAR ccedilla
ENCODING 231
SWIDTH 444 0
DWIDTH 9 0
BBX 8 13 0 -4
BITMAP
3c
63
c3
c0
c0
c0
c1
63
3e
10
1c
04
38
ENDCHAR
STARTCHAR ccaron
ENCODING 232
SWIDTH 444 0
DWIDTH 9 0
BBX 8 14 0 0
BITMAP
41
22
1c
08
00
3c
63
c3
c0
c0
c0
c1
63
3e
ENDCHAR
STARTCHAR eacute
ENCODING 233
SWIDTH 500 0
DWIDTH 9 0
BBX 8 13 0 0
BITMAP
06
0c
10
00
3c
66
c3
c3
ff
c0
c1
63
3e
ENDCHAR
STARTCHAR eogonek
ENCODING 234
SWIDTH 500 0
DWIDTH 9 0
BBX 8 13 0 -4
BITMAP
3c
66
c3
c3
ff
c0
c1
63
3e
10
20
34
18
ENDCHAR
STARTCHAR ediaeresis
ENCODING 235
SWIDTH 500 0
DWIDTH 9 0
BBX 8 12 0 0
BITMAP
66
66
00
3c
66
c3
c3
ff
c0
c1
63
3e
ENDCHAR
STARTCHAR ecaron
ENCODING 236
SWIDTH 500 0
DWIDTH 9 0
BBX 8 14 0 0
BITMAP
82
44
38
10
00
3c
66
c3
c3
ff
c0
c1
63
3e
ENDCHAR
STARTCHAR iacute
ENCODING 237
SWIDTH 315 0
DWIDTH 5 0
BBX 5 13 0 0
BITMAP
18
30
40
00
e0
60
60
60
60
60
60
60
f0
ENDCHAR
STARTCHAR icircumflex
ENCODING 238
SWIDTH 315 0
DWIDTH 5 0
BBX 6 13 -1 0
BITMAP
30
78
84
00
70
30
30
30
30
30
30
30
78
ENDCHAR
STARTCHAR dcaron
ENCODING 239
SWIDTH 720 0
DWIDTH 14 0
BBX 13 15 0 0
BITMAP
0018
0398
0188
0190
01a0
0180
3d80
6380
c180
c180
c180
c180
c180
6380
3dc0
ENDCHAR
STARTCHAR dstroke
ENCODING 240
SWIDTH 668 0
DWIDTH 13 0
BBX 12 14 0 0
BITMAP
0380
0180
0ff0
0180
0180
3d80
6380
c180
c180
c180
c180
c180
6380
3dc0
ENDCHAR
STARTCHAR nacute
ENCODING 241
SWIDTH 611 0
DWIDTH 11 0
BBX 10 13 0 0
BITMAP
0300
0600
0800
0000
ef00
7380
6180
6180
6180
6180
6180
6180
f3c0
ENDCHAR
STARTCHAR ncaron
ENCODING 242
SWIDTH 611 0
DWIDTH 11 0
BBX 10 14 0 0
BITMAP
4100
2200
1c00
0800
0000
ef00
7380
6180
6180
6180
6180
6180
6180
f3c0
ENDCHAR
STARTCHAR oacute
ENCODING 243
SWIDTH 500 0
DWIDTH 10 0
BBX 9 13 0 0
BITMAP
0300
0600
0800
0000
3e00
6300
c180
c180
c180
c180
c180
6300
3e00
ENDCHAR
STARTCHAR ocircumflex
ENCODING 244
SWIDTH 500 0
DWIDTH 10 0
BBX 9 13 0 0
BITMAP
1800
3c00
4200
0000
3e00
6300
c180
c180
c180
c180
c180
6300
3e00
ENDCHAR
STARTCHAR odoubleacute
ENCODING 245
SWIDTH 500 0
DWIDTH 10 0
BBX 11 14 0 0
BITMAP
0660
0cc0
1100
2200
0000
3e00
6300
c180
c180
c180
c180
c180
6300
3e00
ENDCHAR
STARTCHAR odiaeresis
ENCODING 246
SWIDTH 500 0
DWIDTH 10 0
BBX 9 12 0 0
BITMAP
6300
6300
0000
3e00
6300
c180
c180
c180
c180
c180
6300
3e00
ENDCHAR
STARTCHAR division
ENCODING 247
SWIDTH 606 0
DWIDTH 10 0
BBX 10 7 0 2
BITMAP
0c00
0c00
0000
ffc0
0000
0c00
0c00
ENDCHAR
STARTCHAR rcaron
ENCODING 248
SWIDTH 444 0
DWIDTH 8 0
BBX 7 14 0 0
BITMAP
82
44
38
10
00
e6
6e
72
60
60
60
60
60
f0
ENDCHAR
STARTCHAR uring
ENCODING 249
SWIDTH 611 0
DWIDTH 11 0
BBX 10 14 0 0
BITMAP
0c00
1200
1200
0c00
0000
e380
6180
6180
6180
6180
6180
6180
7380
3dc0
ENDCHAR
STARTCHAR uacute
ENCODING 250
SWIDTH 611 0
DWIDTH 11 0
BBX 10 13 0 0
BITMAP
0300
0600
0800
0000
e3c0
6180
6180
6180
6180
6180
6180
7380
3dc0
ENDCHAR
STARTCHAR udoubleacute
ENCODING 251
SWIDTH 611 0
DWIDTH 11 0
BBX 11 14 0 0
BITMAP
0660
0cc0
1100
2200
0000
e380
6180
6180
6180
6180
6180
6180
7380
3dc0
ENDCHAR
STARTCHAR udiaeresis
ENCODING 252
SWIDTH 611 0
DWIDTH 11 0
BBX 10 12 0 0
BITMAP
3300
3300
0000
e3c0
6180
6180
6180
6180
6180
6180
7380
3dc0
ENDCHAR
STARTCHAR yacute
ENCODING 253
SWIDTH 537 0
DWIDTH 11 0
BBX 10 17 0 -4
BITMAP
0300
0600
0800
0000
f1c0
6080
3100
3100
1a00
1a00
0c00
0c00
0800
0800
1000
d000
e000
ENDCHAR
STARTCHAR tcedilla
ENCODING 254
SWIDTH 389 0
DWIDTH 6 0
BBX 6 16 0 -4
BITMAP
60
60
60
f8
60
60
60
60
60
60
64
38
20
38
08
70
ENDCHAR
STARTCHAR abovedot
ENCODING 255
SWIDTH 333 0
DWIDTH 7 0
BBX 2 2 2 10
BITMAP
c0
c0
ENDCHAR
ENDFONT
